<?xml version="1.0" standalone="no"?>
<!DOCTYPE svg PUBLIC "-//W3C//DTD SVG 20010904//EN"
 "http://www.w3.org/TR/2001/REC-SVG-20010904/DTD/svg10.dtd">
<svg version="1.0" xmlns="http://www.w3.org/2000/svg"
 width="553.000000pt" height="553.000000pt" viewBox="0 0 553.000000 553.000000"
 preserveAspectRatio="xMidYMid meet">
<metadata>
Created by potrace 1.11, written by Peter Selinger 2001-2013
</metadata>
<g transform="translate(0.000000,553.000000) scale(0.100000,-0.100000)"
fill="#000000" stroke="none">
<path d="M4509 4748 c-53 -46 -121 -105 -152 -131 l-56 -49 -171 127 c-95 69
-176 125 -181 123 -5 -2 -50 -86 -101 -188 -51 -102 -98 -184 -103 -183 -58
10 -199 37 -280 54 -55 11 -117 24 -137 28 -42 9 -65 0 -52 -20 4 -8 97 -132
206 -277 l198 -263 -63 -62 c-106 -104 -211 -260 -291 -432 -190 -406 -299
-568 -480 -715 -129 -105 -332 -212 -521 -274 -407 -135 -877 -158 -1198 -57
-300 94 -523 283 -642 545 -156 344 -108 702 137 1012 154 196 412 378 663
468 354 126 734 107 1005 -51 85 -49 115 -74 260 -216 141 -138 187 -170 216
-147 25 22 3 109 -53 215 -110 207 -316 368 -568 443 -171 51 -219 57 -450 57
-192 0 -233 -3 -325 -24 -556 -122 -1012 -471 -1222 -936 -20 -44 -41 -100
-47 -125 -7 -25 -16 -54 -21 -65 -23 -47 -33 -155 -37 -383 -5 -302 5 -377 84
-617 106 -323 309 -605 563 -786 148 -105 432 -233 605 -273 l50 -11 7 -315
c8 -324 19 -420 56 -482 15 -25 22 -28 69 -28 51 0 54 1 79 42 35 55 86 201
130 373 20 77 45 174 56 215 11 41 22 85 25 98 4 18 12 22 44 22 37 0 39 -2
49 -42 15 -57 47 -172 65 -228 7 -25 23 -79 35 -120 53 -188 86 -271 128 -328
22 -29 29 -32 78 -32 45 0 56 4 68 23 30 45 41 165 41 437 l0 265 355 7 c195
4 423 13 505 21 83 8 152 12 155 8 3 -3 27 -73 54 -156 26 -82 52 -158 57
-167 5 -10 9 -25 9 -34 0 -29 70 -227 96 -271 32 -55 83 -103 110 -103 37 0
66 44 85 132 15 70 18 133 18 401 1 246 4 317 14 317 21 0 209 95 277 140 36
24 91 64 124 89 l58 46 167 12 c247 17 412 32 446 39 63 13 127 40 155 66 70
63 17 124 -155 176 -85 26 -190 52 -213 52 -40 1 -43 15 -15 66 15 27 58 116
95 197 107 239 129 269 313 431 187 165 261 266 288 394 11 49 16 57 72 97 72
51 126 109 155 164 28 57 28 175 -1 228 -30 56 -105 129 -179 178 -64 42 -65
44 -68 90 -8 141 -121 242 -267 239 -65 -2 -113 -23 -169 -74 -42 -39 -47 -41
-78 -32 -18 6 -51 13 -73 16 -22 4 -61 12 -88 18 -56 14 -57 -28 9 318 17 91
42 232 46 265 6 40 -29 23 -123 -57z"/>
<path d="M905 2865 c-41 -21 -95 -84 -95 -111 0 -12 11 -36 25 -52 19 -22 21
-32 12 -41 -18 -18 51 -78 106 -93 42 -11 48 -10 81 13 60 40 135 219 93 219
-19 0 -37 -21 -37 -45 -1 -30 -51 -115 -82 -138 -27 -20 -28 -20 -68 -2 -56
25 -56 31 1 27 38 -3 49 -1 49 11 0 9 -14 17 -37 21 -21 3 -53 15 -70 26 -82
50 -3 155 101 136 57 -11 67 -79 16 -106 -31 -17 -37 -4 -12 23 25 26 28 47
10 65 -27 27 -75 6 -111 -49 -15 -22 -15 -28 -3 -38 7 -6 20 -9 28 -6 10 4 17
-1 21 -14 9 -34 68 -28 106 10 44 44 43 87 -4 128 -40 35 -82 40 -130 16z"/>
<path d="M2483 2838 c-18 -23 -22 -72 -7 -107 17 -41 17 -42 -1 -35 -8 4 -17
-1 -21 -10 -9 -24 -33 -19 -46 10 -11 24 -10 29 15 48 31 25 37 52 10 41 -43
-18 -60 -17 -66 4 -3 13 -13 21 -26 21 -23 0 -28 -19 -9 -38 8 -8 8 -15 -1
-26 -14 -17 -7 -36 13 -36 8 0 19 -14 26 -30 22 -54 78 -67 105 -26 14 20 22
23 54 19 33 -5 41 -1 60 23 23 29 25 69 3 69 -7 0 -18 -11 -25 -25 -15 -29
-47 -40 -47 -15 0 9 7 23 16 32 9 10 14 29 12 52 -3 30 -7 36 -29 39 -14 2
-30 -3 -36 -10z"/>
<path d="M2230 2814 c-13 -32 -13 -51 0 -59 12 -7 43 53 36 71 -8 22 -26 16
-36 -12z"/>
<path d="M2064 2736 c-4 -10 -2 -27 5 -37 6 -11 14 -47 18 -82 11 -113 41
-131 69 -39 23 75 31 82 39 34 8 -52 27 -77 50 -69 12 5 15 12 10 25 -5 9 -15
37 -24 62 -9 25 -20 51 -24 58 -14 22 -44 13 -65 -19 l-19 -31 -7 35 c-4 20
-15 46 -26 59 -17 22 -19 22 -26 4z"/>
<path d="M1167 2707 c-30 -24 -57 -89 -50 -117 7 -26 46 -41 82 -30 21 6 31 5
35 -5 6 -16 98 -39 124 -31 11 4 24 0 31 -8 16 -20 104 -31 130 -16 36 19 26
48 -24 72 -62 30 -57 45 13 39 19 -2 23 2 20 21 -2 18 -10 24 -35 26 -49 5
-73 -13 -73 -52 0 -27 6 -38 33 -55 l32 -22 -30 7 c-16 4 -34 10 -39 15 -5 4
-15 5 -22 2 -8 -3 -14 1 -14 11 0 9 -18 28 -40 42 -44 30 -38 49 12 38 14 -3
29 0 33 6 11 18 -15 40 -49 40 -69 -1 -89 -59 -35 -104 38 -32 21 -34 -34 -3
-30 17 -53 22 -79 19 -40 -4 -42 -3 -32 22 4 10 18 16 40 16 25 0 38 7 50 25
37 56 -22 88 -79 42z"/>
<path d="M2240 2724 c0 -31 43 -143 58 -149 19 -7 72 44 72 70 0 25 -23 29
-41 7 -22 -28 -29 -28 -29 2 0 42 -18 76 -40 76 -11 0 -20 -3 -20 -6z"/>
<path d="M2020 2670 c0 -35 -22 -94 -39 -105 -7 -4 -19 12 -33 44 -13 32 -27
51 -37 51 -9 -1 -32 -25 -51 -55 -19 -30 -37 -55 -41 -55 -4 0 -11 20 -14 45
-8 51 -27 81 -43 71 -7 -4 -12 -17 -12 -28 l0 -21 -22 20 c-13 12 -52 29 -87
38 -56 14 -66 15 -79 2 -16 -17 -9 -37 14 -37 12 0 14 -7 9 -32 -4 -18 -12
-36 -17 -39 -11 -7 6 -75 23 -93 14 -16 37 12 31 39 -3 20 0 25 16 25 29 0 96
30 106 47 6 11 14 0 32 -43 31 -77 65 -97 72 -42 2 14 15 40 31 58 l27 33 32
-51 c37 -61 62 -67 78 -19 7 17 21 58 33 91 24 65 22 86 -9 86 -16 0 -20 -7
-20 -30z"/>
</g>
</svg>
